<svg width="56" height="42" viewBox="0 0 56 42" fill="none" xmlns="http://www.w3.org/2000/svg">
<mask id="path-1-inside-1_838_5694" fill="white">
<path d="M29.7222 29.9882C30.4661 30.5481 31.4556 30.8562 32.5083 30.8562C33.5606 30.8562 34.5501 30.5481 35.2939 29.9882C36.0382 29.4287 36.4483 28.6841 36.4483 27.8926C36.4483 27.1011 36.0382 26.3568 35.2939 25.797L33.5003 24.4475L37.0409 21.7839C38.1287 22.7002 40.7679 24.6696 43.3642 24.6696C46.0525 24.6696 48.2402 23.0245 48.2402 21.002C48.2402 18.9949 46.0554 17.3498 43.3701 17.3344H43.3423C40.802 17.3344 38.1403 19.3097 37.0453 20.2226L33.4931 17.5507L35.2946 16.1953C36.0389 15.6358 36.449 14.8912 36.449 14.0997C36.449 13.3078 36.0389 12.5636 35.2946 12.0041C34.5507 11.4442 33.5612 11.1361 32.509 11.1361C31.4562 11.1361 30.4663 11.4442 29.7229 12.0041L27.9209 13.3595L26.1189 12.0041C25.3751 11.4442 24.3856 11.1361 23.3329 11.1361C22.2806 11.1361 21.291 11.4442 20.5473 12.0041C19.8029 12.5636 19.3928 13.3082 19.3928 14.0997C19.3928 14.8912 19.803 15.6355 20.5473 16.1953L22.3867 17.5792L18.8549 20.2614C17.7944 19.362 15.1123 17.334 12.4814 17.334C9.79311 17.334 7.60544 18.9792 7.60544 21.0016C7.60544 23.0084 9.79025 24.6535 12.4756 24.6692H12.5033C14.4268 24.6692 16.4132 23.5426 17.7608 22.5828L18.8198 21.7785L22.3542 24.4369L20.5468 25.7967C19.8025 26.3562 19.3924 27.1009 19.3924 27.8923C19.3924 28.6842 19.8025 29.4284 20.5468 29.988C21.2907 30.5478 22.2802 30.8559 23.3324 30.8559C24.3852 30.8559 25.3751 30.5478 26.1185 29.988L27.9205 28.6326L29.7222 29.9882ZM43.3407 18.3837H43.3592C45.2818 18.3943 46.8458 19.5692 46.8458 21.0018C46.8458 22.4454 45.2842 23.62 43.365 23.62C41.4308 23.62 39.0883 21.9532 37.983 21.0032C39.1005 20.0526 41.4536 18.3836 43.3407 18.3836L43.3407 18.3837ZM16.785 21.8328C15.166 22.9862 13.6467 23.6203 12.5039 23.6203H12.4864C10.5638 23.6094 8.99979 22.4348 8.99979 21.0022C8.99979 19.5583 10.5614 18.3837 12.4806 18.3837C14.4202 18.3837 16.7695 20.0596 17.8713 21.0077L16.785 21.8328ZM27.9342 27.1508L24.3342 24.443L27.9225 21.7436L31.5224 24.4514L27.9342 27.1508ZM35.0539 27.8922C35.0539 28.4037 34.7888 28.8846 34.3081 29.2461C33.3463 29.9702 31.6704 29.9691 30.7087 29.2461L28.9145 27.8966L32.5145 25.1888L34.3081 26.5383C34.7893 26.9002 35.0539 27.381 35.0539 27.8922V27.8922ZM32.5085 23.7097L28.9086 21.0019L32.5085 18.2945L36.108 21.0019L32.5085 23.7097ZM27.9361 14.8548L31.5224 17.5524L27.9225 20.2602L24.3532 17.5758L27.9361 14.8548ZM30.7086 12.746C31.6694 12.0226 33.3458 12.0222 34.308 12.746C34.7887 13.1075 35.0538 13.5883 35.0538 14.0999C35.0538 14.6111 34.7887 15.0919 34.308 15.4534L32.5066 16.8088L28.9066 14.101L30.7086 12.746ZM20.7867 14.0999C20.7867 13.5883 21.0518 13.1075 21.5325 12.746C22.4948 12.0226 24.1713 12.0233 25.132 12.746L26.95 14.1131L23.367 16.8341L21.5325 15.4539C21.0518 15.092 20.7867 14.6112 20.7867 14.1V14.0999ZM23.3719 18.3211L26.9364 21.0018L23.3476 23.7008L19.8007 21.0329L23.3719 18.3211ZM25.132 29.2456C24.1703 29.9683 22.4943 29.969 21.5326 29.2456C21.0519 28.8841 20.7868 28.4032 20.7868 27.8917C20.7868 27.3805 21.0519 26.8997 21.5326 26.5382L23.3399 25.1784L26.9399 27.8862L25.132 29.2456Z"/>
</mask>
<path d="M29.7222 29.9882C30.4661 30.5481 31.4556 30.8562 32.5083 30.8562C33.5606 30.8562 34.5501 30.5481 35.2939 29.9882C36.0382 29.4287 36.4483 28.6841 36.4483 27.8926C36.4483 27.1011 36.0382 26.3568 35.2939 25.797L33.5003 24.4475L37.0409 21.7839C38.1287 22.7002 40.7679 24.6696 43.3642 24.6696C46.0525 24.6696 48.2402 23.0245 48.2402 21.002C48.2402 18.9949 46.0554 17.3498 43.3701 17.3344H43.3423C40.802 17.3344 38.1403 19.3097 37.0453 20.2226L33.4931 17.5507L35.2946 16.1953C36.0389 15.6358 36.449 14.8912 36.449 14.0997C36.449 13.3078 36.0389 12.5636 35.2946 12.0041C34.5507 11.4442 33.5612 11.1361 32.509 11.1361C31.4562 11.1361 30.4663 11.4442 29.7229 12.0041L27.9209 13.3595L26.1189 12.0041C25.3751 11.4442 24.3856 11.1361 23.3329 11.1361C22.2806 11.1361 21.291 11.4442 20.5473 12.0041C19.8029 12.5636 19.3928 13.3082 19.3928 14.0997C19.3928 14.8912 19.803 15.6355 20.5473 16.1953L22.3867 17.5792L18.8549 20.2614C17.7944 19.362 15.1123 17.334 12.4814 17.334C9.79311 17.334 7.60544 18.9792 7.60544 21.0016C7.60544 23.0084 9.79025 24.6535 12.4756 24.6692H12.5033C14.4268 24.6692 16.4132 23.5426 17.7608 22.5828L18.8198 21.7785L22.3542 24.4369L20.5468 25.7967C19.8025 26.3562 19.3924 27.1009 19.3924 27.8923C19.3924 28.6842 19.8025 29.4284 20.5468 29.988C21.2907 30.5478 22.2802 30.8559 23.3324 30.8559C24.3852 30.8559 25.3751 30.5478 26.1185 29.988L27.9205 28.6326L29.7222 29.9882ZM43.3407 18.3837H43.3592C45.2818 18.3943 46.8458 19.5692 46.8458 21.0018C46.8458 22.4454 45.2842 23.62 43.365 23.62C41.4308 23.62 39.0883 21.9532 37.983 21.0032C39.1005 20.0526 41.4536 18.3836 43.3407 18.3836L43.3407 18.3837ZM16.785 21.8328C15.166 22.9862 13.6467 23.6203 12.5039 23.6203H12.4864C10.5638 23.6094 8.99979 22.4348 8.99979 21.0022C8.99979 19.5583 10.5614 18.3837 12.4806 18.3837C14.4202 18.3837 16.7695 20.0596 17.8713 21.0077L16.785 21.8328ZM27.9342 27.1508L24.3342 24.443L27.9225 21.7436L31.5224 24.4514L27.9342 27.1508ZM35.0539 27.8922C35.0539 28.4037 34.7888 28.8846 34.3081 29.2461C33.3463 29.9702 31.6704 29.9691 30.7087 29.2461L28.9145 27.8966L32.5145 25.1888L34.3081 26.5383C34.7893 26.9002 35.0539 27.381 35.0539 27.8922V27.8922ZM32.5085 23.7097L28.9086 21.0019L32.5085 18.2945L36.108 21.0019L32.5085 23.7097ZM27.9361 14.8548L31.5224 17.5524L27.9225 20.2602L24.3532 17.5758L27.9361 14.8548ZM30.7086 12.746C31.6694 12.0226 33.3458 12.0222 34.308 12.746C34.7887 13.1075 35.0538 13.5883 35.0538 14.0999C35.0538 14.6111 34.7887 15.0919 34.308 15.4534L32.5066 16.8088L28.9066 14.101L30.7086 12.746ZM20.7867 14.0999C20.7867 13.5883 21.0518 13.1075 21.5325 12.746C22.4948 12.0226 24.1713 12.0233 25.132 12.746L26.95 14.1131L23.367 16.8341L21.5325 15.4539C21.0518 15.092 20.7867 14.6112 20.7867 14.1V14.0999ZM23.3719 18.3211L26.9364 21.0018L23.3476 23.7008L19.8007 21.0329L23.3719 18.3211ZM25.132 29.2456C24.1703 29.9683 22.4943 29.969 21.5326 29.2456C21.0519 28.8841 20.7868 28.4032 20.7868 27.8917C20.7868 27.3805 21.0519 26.8997 21.5326 26.5382L23.3399 25.1784L26.9399 27.8862L25.132 29.2456Z" fill="white"/>
<path d="M29.7222 29.9882L30.3236 29.1893L30.3235 29.1892L29.7222 29.9882ZM35.2939 29.9882L34.693 29.1889L34.6925 29.1893L35.2939 29.9882ZM35.2939 25.797L34.6927 26.5961L34.6928 26.5962L35.2939 25.797ZM33.5003 24.4475L32.8991 23.6484L31.8369 24.4474L32.899 25.2466L33.5003 24.4475ZM37.0409 21.7839L37.6852 21.0191L37.0761 20.5061L36.4398 20.9848L37.0409 21.7839ZM43.3701 17.3344L43.3758 16.3344H43.3701V17.3344ZM37.0453 20.2226L36.4442 21.0218L37.0773 21.498L37.6857 20.9907L37.0453 20.2226ZM33.4931 17.5507L32.8919 16.7516L31.8296 17.5508L32.892 18.3499L33.4931 17.5507ZM35.2946 16.1953L34.6937 15.396L34.6933 15.3962L35.2946 16.1953ZM35.2946 12.0041L34.6932 12.803L34.6937 12.8034L35.2946 12.0041ZM29.7229 12.0041L30.324 12.8032L30.3245 12.8029L29.7229 12.0041ZM27.9209 13.3595L27.3198 14.1586L27.9209 14.6108L28.522 14.1586L27.9209 13.3595ZM26.1189 12.0041L25.5176 12.803L25.5178 12.8032L26.1189 12.0041ZM20.5473 12.0041L21.1481 12.8034L21.1487 12.803L20.5473 12.0041ZM20.5473 16.1953L21.1485 15.3962L21.1483 15.3961L20.5473 16.1953ZM22.3867 17.5792L22.9915 18.3756L24.0451 17.5754L22.9879 16.7801L22.3867 17.5792ZM18.8549 20.2614L18.2081 21.0241L18.8204 21.5433L19.4597 21.0578L18.8549 20.2614ZM12.4756 24.6692L12.4697 25.6692H12.4756V24.6692ZM17.7608 22.5828L18.3409 23.3973L18.3534 23.3884L18.3656 23.3792L17.7608 22.5828ZM18.8198 21.7785L19.421 20.9793L18.8169 20.525L18.215 20.9821L18.8198 21.7785ZM22.3542 24.4369L22.9554 25.236L24.0176 24.4368L22.9553 23.6378L22.3542 24.4369ZM20.5468 25.7967L21.1477 26.5961L21.1481 26.5958L20.5468 25.7967ZM20.5468 29.988L21.1482 29.189L21.1477 29.1886L20.5468 29.988ZM26.1185 29.988L25.5174 29.1888L25.5169 29.1892L26.1185 29.988ZM27.9205 28.6326L28.5217 27.8335L27.9206 27.3812L27.3194 27.8334L27.9205 28.6326ZM43.3407 18.3837L42.4848 17.8665L41.5679 19.3837H43.3407V18.3837ZM43.3592 18.3837L43.3647 17.3837H43.3592V18.3837ZM37.983 21.0032L37.3351 20.2415L36.4443 20.9993L37.3312 21.7616L37.983 21.0032ZM43.3407 18.3836L44.1966 18.9008L45.1134 17.3836H43.3407V18.3836ZM16.785 21.8328L17.3652 22.6473L17.3777 22.6384L17.3899 22.6292L16.785 21.8328ZM12.4864 23.6203L12.4807 24.6203H12.4864V23.6203ZM17.8713 21.0077L18.4761 21.8041L19.4608 21.0562L18.5235 20.2497L17.8713 21.0077ZM27.9342 27.1508L27.3331 27.95L27.9342 28.4021L28.5354 27.9499L27.9342 27.1508ZM24.3342 24.443L23.7331 23.6439L22.6707 24.4431L23.7331 25.2422L24.3342 24.443ZM27.9225 21.7436L28.5236 20.9445L27.9224 20.4923L27.3213 20.9445L27.9225 21.7436ZM31.5224 24.4514L32.1236 25.2506L33.186 24.4514L32.1236 23.6523L31.5224 24.4514ZM34.3081 29.2461L33.707 28.4469L33.7066 28.4472L34.3081 29.2461ZM30.7087 29.2461L30.1075 30.0452L30.1077 30.0453L30.7087 29.2461ZM28.9145 27.8966L28.3134 27.0974L27.2509 27.8966L28.3134 28.6957L28.9145 27.8966ZM32.5145 25.1888L33.1157 24.3897L32.5146 23.9374L31.9134 24.3896L32.5145 25.1888ZM34.3081 26.5383L33.7069 27.3373L33.707 27.3374L34.3081 26.5383ZM32.5085 23.7097L31.9074 24.5089L32.5086 24.9611L33.1097 24.5088L32.5085 23.7097ZM28.9086 21.0019L28.3075 20.2027L27.2449 21.0019L28.3075 21.8011L28.9086 21.0019ZM32.5085 18.2945L33.1097 17.4953L32.5086 17.0432L31.9075 17.4953L32.5085 18.2945ZM36.108 21.0019L36.7092 21.801L37.7715 21.0019L36.7091 20.2028L36.108 21.0019ZM27.9361 14.8548L28.5372 14.0557L27.9332 13.6013L27.3313 14.0584L27.9361 14.8548ZM31.5224 17.5524L32.1236 18.3516L33.186 17.5524L32.1236 16.7532L31.5224 17.5524ZM27.9225 20.2602L27.3214 21.0594L27.9225 21.5115L28.5236 21.0594L27.9225 20.2602ZM24.3532 17.5758L23.7484 16.7794L22.6946 17.5797L23.7521 18.375L24.3532 17.5758ZM30.7086 12.746L31.3096 13.5452L31.3101 13.5449L30.7086 12.746ZM34.308 12.746L33.7069 13.5451L33.7069 13.5452L34.308 12.746ZM34.308 15.4534L33.707 14.6542L33.7068 14.6543L34.308 15.4534ZM32.5066 16.8088L31.9054 17.608L32.5066 18.0602L33.1078 17.6079L32.5066 16.8088ZM28.9066 14.101L28.3056 13.3018L27.2429 14.1009L28.3055 14.9002L28.9066 14.101ZM21.5325 12.746L20.9316 11.9467L20.9314 11.9468L21.5325 12.746ZM25.132 12.746L24.5308 13.5451L24.5309 13.5452L25.132 12.746ZM26.95 14.1131L27.5548 14.9095L28.6086 14.1092L27.551 13.3139L26.95 14.1131ZM23.367 16.8341L22.7658 17.6332L23.3698 18.0876L23.9718 17.6305L23.367 16.8341ZM21.5325 15.4539L20.931 16.2528L20.9313 16.253L21.5325 15.4539ZM23.3719 18.3211L23.973 17.5219L23.369 17.0677L22.7672 17.5247L23.3719 18.3211ZM26.9364 21.0018L27.5374 21.801L28.6001 21.0018L27.5374 20.2026L26.9364 21.0018ZM23.3476 23.7008L22.7465 24.5L23.3476 24.9521L23.9487 24.5L23.3476 23.7008ZM19.8007 21.0329L19.196 20.2365L18.1422 21.0367L19.1996 21.8321L19.8007 21.0329ZM25.132 29.2456L25.7328 30.045L25.733 30.0448L25.132 29.2456ZM21.5326 29.2456L22.1337 28.4464L22.1337 28.4464L21.5326 29.2456ZM21.5326 26.5382L22.1337 27.3374L22.1338 27.3372L21.5326 26.5382ZM23.3399 25.1784L23.941 24.3792L23.3398 23.927L22.7387 24.3793L23.3399 25.1784ZM26.9399 27.8862L27.5409 28.6854L28.6036 27.8863L27.541 27.087L26.9399 27.8862ZM29.1209 30.7872C30.0605 31.4944 31.2685 31.8562 32.5083 31.8562V29.8562C31.6426 29.8562 30.8716 29.6017 30.3236 29.1893L29.1209 30.7872ZM32.5083 31.8562C33.7476 31.8562 34.9557 31.4944 35.8953 30.7872L34.6925 29.1893C34.1445 29.6018 33.3735 29.8562 32.5083 29.8562V31.8562ZM35.8947 30.7876C36.8403 30.0768 37.4483 29.0562 37.4483 27.8926H35.4483C35.4483 28.312 35.2361 28.7807 34.693 29.1889L35.8947 30.7876ZM37.4483 27.8926C37.4483 26.7289 36.8402 25.7087 35.895 24.9978L34.6928 26.5962C35.2362 27.0049 35.4483 27.4734 35.4483 27.8926H37.4483ZM35.8951 24.9979L34.1015 23.6484L32.899 25.2466L34.6927 26.5961L35.8951 24.9979ZM34.1014 25.2466L37.6421 22.583L36.4398 20.9848L32.8991 23.6484L34.1014 25.2466ZM36.3967 22.5487C36.9703 23.0319 37.9595 23.799 39.1606 24.4496C40.3492 25.0935 41.8293 25.6696 43.3642 25.6696V23.6696C42.3029 23.6696 41.1652 23.261 40.1132 22.6911C39.0736 22.1279 38.1993 21.4522 37.6852 21.0191L36.3967 22.5487ZM43.3642 25.6696C44.9052 25.6696 46.3398 25.1994 47.4114 24.3934C48.483 23.5875 49.2402 22.3983 49.2402 21.002H47.2402C47.2402 21.6281 46.9036 22.2728 46.2092 22.795C45.5149 23.3173 44.5115 23.6696 43.3642 23.6696V25.6696ZM49.2402 21.002C49.2402 19.6114 48.4818 18.4268 47.4137 17.6225C46.3449 16.8176 44.9138 16.3432 43.3758 16.3344L43.3643 18.3344C44.5116 18.341 45.5156 18.6968 46.2106 19.2201C46.9062 19.744 47.2402 20.3855 47.2402 21.002H49.2402ZM43.3701 16.3344H43.3423V18.3344H43.3701V16.3344ZM43.3423 16.3344C41.832 16.3344 40.3588 16.9145 39.1747 17.5573C37.9762 18.208 36.981 18.9743 36.4049 19.4546L37.6857 20.9907C38.2047 20.558 39.0878 19.8802 40.1289 19.315C41.1845 18.742 42.3123 18.3344 43.3423 18.3344V16.3344ZM37.6464 19.4235L34.0942 16.7515L32.892 18.3499L36.4442 21.0218L37.6464 19.4235ZM34.0943 18.3498L35.8958 16.9944L34.6933 15.3962L32.8919 16.7516L34.0943 18.3498ZM35.8954 16.9947C36.841 16.2839 37.449 15.2633 37.449 14.0997H35.449C35.449 14.5191 35.2367 14.9878 34.6937 15.396L35.8954 16.9947ZM37.449 14.0997C37.449 12.9356 36.8409 11.9155 35.8954 11.2047L34.6937 12.8034C35.2368 13.2117 35.449 13.68 35.449 14.0997H37.449ZM35.8959 11.2051C34.9563 10.4979 33.7483 10.1361 32.509 10.1361V12.1361C33.3741 12.1361 34.1451 12.3905 34.6932 12.803L35.8959 11.2051ZM32.509 10.1361C31.2693 10.1361 30.0607 10.4978 29.1213 11.2053L30.3245 12.8029C30.8718 12.3907 31.6431 12.1361 32.509 12.1361V10.1361ZM29.1218 11.2049L27.3198 12.5603L28.522 14.1586L30.324 12.8032L29.1218 11.2049ZM28.522 12.5603L26.7201 11.2049L25.5178 12.8032L27.3198 14.1586L28.522 12.5603ZM26.7203 11.2051C25.7807 10.4979 24.5726 10.1361 23.3329 10.1361V12.1361C24.1985 12.1361 24.9695 12.3906 25.5176 12.803L26.7203 11.2051ZM23.3329 10.1361C22.0935 10.1361 20.8854 10.4979 19.9459 11.2051L21.1487 12.803C21.6966 12.3906 22.4677 12.1361 23.3329 12.1361V10.1361ZM19.9464 11.2047C19.0008 11.9155 18.3928 12.9361 18.3928 14.0997H20.3928C20.3928 13.6803 20.6051 13.2116 21.1481 12.8034L19.9464 11.2047ZM18.3928 14.0997C18.3928 15.2634 19.001 16.2836 19.9462 16.9945L21.1483 15.3961C20.6049 14.9874 20.3928 14.5189 20.3928 14.0997H18.3928ZM19.9461 16.9944L21.7855 18.3783L22.9879 16.7801L21.1485 15.3962L19.9461 16.9944ZM21.7819 16.7828L18.2501 19.465L19.4597 21.0578L22.9915 18.3756L21.7819 16.7828ZM19.5017 19.4988C18.9422 19.0242 17.9494 18.2466 16.7371 17.5832C15.5379 16.927 14.0368 16.334 12.4814 16.334V18.334C13.5569 18.334 14.7123 18.755 15.777 19.3377C16.8285 19.9131 17.7071 20.5992 18.2081 21.0241L19.5017 19.4988ZM12.4814 16.334C10.9404 16.334 9.5058 16.8043 8.43423 17.6102C7.36267 18.4162 6.60544 19.6053 6.60544 21.0016H8.60544C8.60544 20.3755 8.94204 19.7308 9.6364 19.2086C10.3307 18.6864 11.3341 18.334 12.4814 18.334V16.334ZM6.60544 21.0016C6.60544 22.3921 7.36392 23.5766 8.43195 24.3809C9.5007 25.1857 10.9317 25.6602 12.4697 25.6692L12.4814 23.6692C11.3341 23.6625 10.3301 23.3066 9.63507 22.7832C8.93936 22.2593 8.60544 21.6179 8.60544 21.0016H6.60544ZM12.4756 25.6692H12.5033V23.6692H12.4756V25.6692ZM12.5033 25.6692C14.7602 25.6692 16.9677 24.3754 18.3409 23.3973L17.1806 21.7683C15.8588 22.7098 14.0935 23.6692 12.5033 23.6692V25.6692ZM18.3656 23.3792L19.4246 22.5749L18.215 20.9821L17.156 21.7864L18.3656 23.3792ZM18.2187 22.5777L21.7531 25.2361L22.9553 23.6378L19.421 20.9793L18.2187 22.5777ZM21.7529 23.6378L19.9456 24.9976L21.1481 26.5958L22.9554 25.236L21.7529 23.6378ZM19.946 24.9974C19.0004 25.7082 18.3924 26.7288 18.3924 27.8923H20.3924C20.3924 27.473 20.6046 27.0043 21.1477 26.5961L19.946 24.9974ZM18.3924 27.8923C18.3924 29.0564 19.0005 30.0766 19.946 30.7873L21.1477 29.1886C20.6046 28.7803 20.3924 28.312 20.3924 27.8923H18.3924ZM19.9455 30.7869C20.8851 31.4941 22.0931 31.8559 23.3324 31.8559V29.8559C22.4673 29.8559 21.6963 29.6015 21.1482 29.189L19.9455 30.7869ZM23.3324 31.8559C24.5721 31.8559 25.7807 31.4943 26.7201 30.7868L25.5169 29.1892C24.9696 29.6014 24.1983 29.8559 23.3324 29.8559V31.8559ZM26.7196 30.7871L28.5216 29.4317L27.3194 27.8334L25.5174 29.1888L26.7196 30.7871ZM27.3192 29.4316L29.121 30.7873L30.3235 29.1892L28.5217 27.8335L27.3192 29.4316ZM43.3407 19.3837H43.3592V17.3837H43.3407V19.3837ZM43.3536 19.3837C44.1201 19.3879 44.7785 19.6254 45.2229 19.9591C45.6682 20.2935 45.8458 20.6738 45.8458 21.0018H47.8458C47.8458 19.8973 47.2414 18.9738 46.424 18.3599C45.6057 17.7454 44.5208 17.3901 43.3647 17.3837L43.3536 19.3837ZM45.8458 21.0018C45.8458 21.3385 45.6657 21.7208 45.224 22.0531C44.7823 22.3853 44.1277 22.62 43.365 22.62V24.62C44.5215 24.62 45.6073 24.2673 46.4262 23.6514C47.2451 23.0355 47.8458 22.1087 47.8458 21.0018H45.8458ZM43.365 22.62C42.6521 22.62 41.7628 22.3005 40.8481 21.7933C39.956 21.2986 39.1497 20.6873 38.6348 20.2448L37.3312 21.7616C37.9216 22.2691 38.8392 22.9662 39.8782 23.5424C40.8947 24.106 42.1437 24.62 43.365 24.62V22.62ZM38.631 21.7649C39.1535 21.3204 39.967 20.7071 40.8593 20.2108C41.7765 19.7007 42.6548 19.3836 43.3407 19.3836V17.3836C42.1395 17.3836 40.8976 17.901 39.8872 18.463C38.8517 19.0389 37.93 19.7354 37.3351 20.2415L38.631 21.7649ZM42.4849 17.8664L42.4848 17.8665L44.1965 18.9009L44.1966 18.9008L42.4849 17.8664ZM16.2048 21.0183C14.644 22.1302 13.3346 22.6203 12.5039 22.6203V24.6203C13.9588 24.6203 15.6879 23.8421 17.3652 22.6473L16.2048 21.0183ZM12.5039 22.6203H12.4864V24.6203H12.5039V22.6203ZM12.4921 22.6204C11.7255 22.616 11.067 22.3785 10.6226 22.0447C10.1773 21.7104 9.99979 21.3302 9.99979 21.0022H7.99979C7.99979 22.1068 8.60425 23.0302 9.42163 23.644C10.2398 24.2584 11.3247 24.6137 12.4807 24.6203L12.4921 22.6204ZM9.99979 21.0022C9.99979 20.6653 10.18 20.2829 10.6216 19.9506C11.0633 19.6183 11.7179 19.3837 12.4806 19.3837V17.3837C11.3241 17.3837 10.2383 17.7363 9.41934 18.3523C8.60044 18.9683 7.99979 19.8952 7.99979 21.0022H9.99979ZM12.4806 19.3837C13.1956 19.3837 14.0876 19.705 15.0044 20.2143C15.8986 20.7111 16.7058 21.3241 17.219 21.7657L18.5235 20.2497C17.9349 19.7432 17.0166 19.0442 15.9757 18.466C14.9575 17.9003 13.7051 17.3837 12.4806 17.3837V19.3837ZM17.2664 20.2114L16.1801 21.0365L17.3899 22.6292L18.4761 21.8041L17.2664 20.2114ZM28.5353 26.3516L24.9354 23.6438L23.7331 25.2422L27.3331 27.95L28.5353 26.3516ZM24.9354 25.2421L28.5237 22.5428L27.3213 20.9445L23.7331 23.6439L24.9354 25.2421ZM27.3214 22.5428L30.9213 25.2506L32.1236 23.6523L28.5236 20.9445L27.3214 22.5428ZM30.9213 23.6523L27.333 26.3517L28.5354 27.9499L32.1236 25.2506L30.9213 23.6523ZM34.0539 27.8922C34.0539 28.0314 33.9868 28.2364 33.707 28.4469L34.9092 30.0452C35.5907 29.5327 36.0539 28.776 36.0539 27.8922H34.0539ZM33.7066 28.4472C33.4379 28.6495 33.005 28.7889 32.5086 28.7888C32.0122 28.7887 31.5788 28.6491 31.3096 28.4468L30.1077 30.0453C30.8002 30.566 31.6857 30.7886 32.5081 30.7888C33.3306 30.7889 34.2166 30.5667 34.9096 30.0449L33.7066 28.4472ZM31.3098 28.4469L29.5156 27.0974L28.3134 28.6957L30.1075 30.0452L31.3098 28.4469ZM29.5156 28.6957L33.1156 25.9879L31.9134 24.3896L28.3134 27.0974L29.5156 28.6957ZM31.9133 25.9878L33.7069 27.3373L34.9093 25.7392L33.1157 24.3897L31.9133 25.9878ZM33.707 27.3374C33.9871 27.5481 34.0539 27.7531 34.0539 27.8922H36.0539C36.0539 27.0089 35.5914 26.2522 34.9092 25.7391L33.707 27.3374ZM33.1097 22.9106L29.5097 20.2028L28.3075 21.8011L31.9074 24.5089L33.1097 22.9106ZM29.5097 21.8011L33.1096 19.0937L31.9075 17.4953L28.3075 20.2027L29.5097 21.8011ZM31.9074 19.0937L35.5069 21.8011L36.7091 20.2028L33.1097 17.4953L31.9074 19.0937ZM35.5068 20.2028L31.9074 22.9106L33.1097 24.5088L36.7092 21.801L35.5068 20.2028ZM27.3349 15.654L30.9213 18.3516L32.1236 16.7532L28.5372 14.0557L27.3349 15.654ZM30.9213 16.7532L27.3214 19.461L28.5236 21.0594L32.1236 18.3516L30.9213 16.7532ZM28.5235 19.461L24.9542 16.7766L23.7521 18.375L27.3214 21.0594L28.5235 19.461ZM24.958 18.3722L28.5409 15.6512L27.3313 14.0584L23.7484 16.7794L24.958 18.3722ZM31.3101 13.5449C31.5784 13.3428 32.0113 13.2033 32.5078 13.2033C33.0043 13.2032 33.4377 13.3427 33.7069 13.5451L34.9092 11.9469C34.2161 11.4255 33.3302 11.2032 32.5077 11.2033C31.6853 11.2033 30.7995 11.4257 30.1071 11.9471L31.3101 13.5449ZM33.7069 13.5452C33.9868 13.7557 34.0538 13.9607 34.0538 14.0999H36.0538C36.0538 13.216 35.5906 12.4594 34.9091 11.9468L33.7069 13.5452ZM34.0538 14.0999C34.0538 14.2386 33.9869 14.4437 33.707 14.6542L34.9091 16.2526C35.5905 15.7401 36.0538 14.9835 36.0538 14.0999H34.0538ZM33.7068 14.6543L31.9053 16.0097L33.1078 17.6079L34.9092 16.2525L33.7068 14.6543ZM33.1077 16.0096L29.5077 13.3018L28.3055 14.9002L31.9054 17.608L33.1077 16.0096ZM29.5076 14.9003L31.3096 13.5452L30.1076 11.9467L28.3056 13.3018L29.5076 14.9003ZM21.7867 14.0999C21.7867 13.9607 21.8538 13.7556 22.1336 13.5452L20.9314 11.9468C20.2499 12.4593 19.7867 13.216 19.7867 14.0999H21.7867ZM22.1334 13.5453C22.4026 13.343 22.836 13.2036 23.3327 13.2037C23.8294 13.2038 24.2624 13.3432 24.5308 13.5451L25.7331 11.9469C25.0408 11.4261 24.1552 11.2038 23.333 11.2037C22.5106 11.2036 21.6247 11.4256 20.9316 11.9467L22.1334 13.5453ZM24.5309 13.5452L26.349 14.9123L27.551 13.3139L25.733 11.9467L24.5309 13.5452ZM26.3452 13.3167L22.7622 16.0377L23.9718 17.6305L27.5548 14.9095L26.3452 13.3167ZM23.9682 16.035L22.1337 14.6548L20.9313 16.253L22.7658 17.6332L23.9682 16.035ZM22.134 14.655C21.8536 14.4439 21.7867 14.2386 21.7867 14.1H19.7867C19.7867 14.9837 20.2501 15.7401 20.931 16.2528L22.134 14.655ZM21.7867 14.1V14.0999H19.7867V14.1H21.7867ZM22.7709 19.1203L26.3353 21.801L27.5374 20.2026L23.973 17.5219L22.7709 19.1203ZM26.3353 20.2026L22.7466 22.9016L23.9487 24.5L27.5374 21.801L26.3353 20.2026ZM23.9487 22.9017L20.4018 20.2338L19.1996 21.8321L22.7465 24.5L23.9487 22.9017ZM20.4055 21.8293L23.9767 19.1175L22.7672 17.5247L19.196 20.2365L20.4055 21.8293ZM24.5313 28.4461C24.2622 28.6484 23.8287 28.7878 23.3321 28.7879C22.8356 28.7879 22.4025 28.6486 22.1337 28.4464L20.9314 30.0447C21.6243 30.566 22.5101 30.788 23.3324 30.7879C24.1547 30.7878 25.0401 30.5655 25.7328 30.045L24.5313 28.4461ZM22.1337 28.4464C21.8538 28.2359 21.7868 28.0309 21.7868 27.8917H19.7868C19.7868 28.7756 20.25 29.5322 20.9315 30.0447L22.1337 28.4464ZM21.7868 27.8917C21.7868 27.753 21.8537 27.5479 22.1337 27.3374L20.9315 25.739C20.2501 26.2514 19.7868 27.008 19.7868 27.8917H21.7868ZM22.1338 27.3372L23.9411 25.9775L22.7387 24.3793L20.9314 25.7391L22.1338 27.3372ZM22.7388 25.9775L26.3388 28.6853L27.541 27.087L23.941 24.3792L22.7388 25.9775ZM26.3389 27.0869L24.531 28.4463L25.733 30.0448L27.5409 28.6854L26.3389 27.0869Z" fill="white" mask="url(#path-1-inside-1_838_5694)"/>
<path d="M27.7306 0.547235L27.7309 0.546966C27.7544 0.529295 27.8215 0.5 27.9229 0.5C28.0242 0.5 28.0917 0.529278 28.1156 0.547234L55.3031 20.997L28.1156 41.4467L28.4003 41.8253L28.1156 41.4467C28.0824 41.4717 28.0145 41.5 27.9228 41.5C27.8312 41.5 27.7633 41.4717 27.7301 41.4467L0.543062 20.997L27.7306 0.547235ZM28.2234 0.86075L27.9228 0.63468L27.6223 0.86075L1.38294 20.5973L0.851705 20.9969L1.38294 21.3965L27.6223 41.133L27.9228 41.3591L28.2234 41.133L54.4627 21.3965L54.994 20.9969L54.4627 20.5973L28.2234 0.86075Z" fill="white" stroke="white"/>
</svg>
