<svg width="56" height="42" viewBox="0 0 56 42" fill="none" xmlns="http://www.w3.org/2000/svg">
<path d="M30.0229 29.5887L30.0228 29.5887L28.2211 28.233L27.9205 28.0069L27.6199 28.233L25.818 29.5884L25.8177 29.5886C25.1723 30.0746 24.2917 30.3559 23.3324 30.3559C22.3737 30.3559 21.4935 30.0747 20.8475 29.5885L20.8473 29.5883C20.2035 29.1044 19.8924 28.4981 19.8924 27.8923C19.8924 27.2869 20.2036 26.6802 20.8473 26.1964L20.8474 26.1963L22.6548 24.8365L23.1859 24.4369L22.6547 24.0373L19.1204 21.3789L18.8184 21.1518L18.5174 21.3803L17.4645 22.1799C16.1302 23.1294 14.2574 24.1692 12.5033 24.1692H12.4771C11.2326 24.1616 10.1224 23.7761 9.33429 23.1826C8.5455 22.5886 8.10544 21.8114 8.10544 21.0016C8.10544 20.183 8.5472 19.4022 9.33586 18.809C10.1245 18.2158 11.2357 17.834 12.4814 17.834C13.6769 17.834 14.9187 18.298 16.017 18.8991C17.1088 19.4965 18.0159 20.2054 18.5315 20.6427L18.8376 20.9024L19.1573 20.6596L22.6891 17.9774L23.2159 17.5773L22.6873 17.1796L20.8479 15.7958L20.8478 15.7957C20.2039 15.3115 19.8928 14.7051 19.8928 14.0997C19.8928 13.4943 20.204 12.8876 20.8477 12.4037L20.848 12.4035C21.4938 11.9174 22.3741 11.6361 23.3329 11.6361C24.2921 11.6361 25.1723 11.9174 25.8183 12.4036L25.8184 12.4037L27.6204 13.759L27.9209 13.9851L28.2215 13.759L30.0234 12.4037L30.0237 12.4035C30.669 11.9174 31.5497 11.6361 32.509 11.6361C33.4677 11.6361 34.3479 11.9174 34.9939 12.4036L34.9941 12.4037C35.6378 12.8877 35.949 13.4939 35.949 14.0997C35.949 14.7051 35.6378 15.3118 34.9941 15.7956L34.9939 15.7958L33.1925 17.1512L32.6614 17.5508L33.1925 17.9503L36.7448 20.6222L37.0613 20.8603L37.3655 20.6066C37.8987 20.1621 38.8099 19.4621 39.8904 18.8756C40.978 18.2851 42.1922 17.8344 43.3423 17.8344H43.3686C43.6194 17.8359 43.8649 17.8528 44.1033 17.8836H43.3407C42.2683 17.8836 41.1174 18.3509 40.1302 18.9C39.1306 19.4559 38.2359 20.1317 37.659 20.6224L37.2136 21.0013L37.6571 21.3824C38.2286 21.8736 39.1184 22.5493 40.1207 23.1051C41.1117 23.6547 42.2708 24.12 43.365 24.12C44.423 24.12 45.401 23.7968 46.1256 23.2518C46.8502 22.7068 47.3458 21.9161 47.3458 21.0018C47.3458 20.0914 46.8481 19.3037 46.1237 18.7597C45.5915 18.36 44.9227 18.0781 44.1856 17.9542L44.2187 17.8997C45.1155 18.0338 45.9079 18.3663 46.5113 18.8207C47.3001 19.4147 47.7402 20.192 47.7402 21.002C47.7402 21.8207 47.2984 22.6015 46.5098 23.1946C45.7211 23.7878 44.6099 24.1696 43.3642 24.1696C42.1845 24.1696 40.9612 23.7191 39.875 23.1307C38.7951 22.5457 37.8921 21.8471 37.3631 21.4015L37.0585 21.145L36.7404 21.3844L33.1997 24.0479L32.6686 24.4475L33.1997 24.847L34.9933 26.1965L34.9933 26.1966C35.6372 26.6808 35.9483 27.2873 35.9483 27.8926C35.9483 28.498 35.6371 29.1047 34.9935 29.5886L34.9932 29.5888C34.3473 30.0749 33.467 30.3562 32.5083 30.3562C31.5491 30.3562 30.6688 30.0749 30.0229 29.5887ZM17.0751 22.2401L17.0813 22.2356L17.0874 22.231L18.1737 21.4059L18.666 21.032L18.1974 20.6287C17.6277 20.1385 16.7371 19.461 15.7329 18.9031C14.7401 18.3515 13.5777 17.8837 12.4806 17.8837C11.4225 17.8837 10.4445 18.2068 9.71992 18.7519C8.99532 19.297 8.49979 20.0877 8.49979 21.0022C8.49979 21.9126 8.99752 22.7002 9.72187 23.2442C10.4466 23.7885 11.4249 24.1143 12.4836 24.1203V24.1203H12.4864H12.5039C13.8027 24.1203 15.4269 23.4141 17.0751 22.2401ZM27.6336 27.5504L27.9342 27.7765L28.2348 27.5504L31.823 24.851L32.3542 24.4514L31.823 24.0519L28.223 21.3441L27.9225 21.118L27.6219 21.3441L24.0337 24.0434L23.5025 24.443L24.0337 24.8426L27.6336 27.5504ZM30.4081 29.6456L30.4082 29.6457L34.6087 29.6456C34.6087 29.6456 34.6088 29.6455 34.6089 29.6455C35.1898 29.2085 35.5539 28.5898 35.5539 27.8922C35.5539 27.195 35.1904 26.5762 34.6087 26.1387C34.6087 26.1387 34.6087 26.1387 34.6087 26.1387L32.8151 24.7892L32.5145 24.5631L32.2139 24.7892L28.614 27.497L28.0827 27.8966L28.614 28.2961L30.4081 29.6456ZM32.208 24.1093L32.5086 24.3354L32.8091 24.1093L36.4086 21.4015L36.9398 21.0019L36.4086 20.6023L32.8091 17.8949L32.5086 17.6689L32.208 17.8949L28.6081 20.6023L28.0768 21.0019L28.608 21.4015L32.208 24.1093ZM28.2366 14.4552L27.9346 14.2281L27.6337 14.4566L24.0508 17.1776L23.5239 17.5778L24.0526 17.9754L27.622 20.6598L27.9225 20.8858L28.223 20.6598L31.823 17.952L32.3542 17.5524L31.823 17.1528L28.2366 14.4552ZM32.206 17.2084L32.5066 17.4345L32.8072 17.2083L34.6086 15.853C34.6086 15.853 34.6086 15.853 34.6086 15.853C35.1896 15.416 35.5538 14.7973 35.5538 14.0999C35.5538 13.4022 35.1896 12.7835 34.6086 12.3464C34.0215 11.9048 33.2487 11.7032 32.5077 11.7033C31.7668 11.7033 30.9942 11.905 30.4078 12.3466L28.6061 13.7014L28.0747 14.101L28.606 14.5006L32.206 17.2084ZM21.232 12.3463L21.232 12.3464C20.6509 12.7834 20.2867 13.4022 20.2867 14.0999V14.1C20.2867 14.7974 20.651 15.416 21.2317 15.8533L21.2319 15.8534L23.0664 17.2336L23.3684 17.4609L23.6694 17.2323L27.2524 14.5113L27.7793 14.1111L27.2505 13.7135L25.4325 12.3464C25.4325 12.3464 25.4325 12.3464 25.4325 12.3464C24.8461 11.9053 24.0737 11.7038 23.3329 11.7037C22.592 11.7036 21.8192 11.9049 21.232 12.3463ZM23.6724 17.9215L23.3705 17.6944L23.0695 17.9229L19.4984 20.6347L18.9715 21.0348L19.5002 21.4325L23.0471 24.1004L23.3476 24.3265L23.6482 24.1004L27.2369 21.4014L27.7682 21.0018L27.2369 20.6022L23.6724 17.9215ZM25.4324 29.6453L25.4325 29.6452L27.2404 28.2858L27.7717 27.8862L27.2404 27.4866L23.6405 24.7788L23.3399 24.5527L23.0393 24.7788L21.232 26.1386C21.232 26.1386 21.232 26.1386 21.232 26.1386C20.651 26.5756 20.2868 27.1943 20.2868 27.8917C20.2868 28.5894 20.651 29.2081 21.232 29.6452C21.8189 30.0866 22.5915 30.288 23.3324 30.2879C24.0732 30.2878 24.8456 30.0862 25.4324 29.6453Z" fill="white" stroke="white"/>
<path d="M27.7306 0.547235L27.7309 0.546966C27.7544 0.529295 27.8215 0.5 27.9229 0.5C28.0242 0.5 28.0917 0.529278 28.1156 0.547234L55.3031 20.997L28.1156 41.4467L28.4161 41.8463L28.1156 41.4467C28.0824 41.4717 28.0145 41.5 27.9228 41.5C27.8312 41.5 27.7633 41.4717 27.7301 41.4467L0.543061 20.997L27.7306 0.547235ZM28.2234 0.86075L27.9228 0.63468L27.6223 0.86075L1.38294 20.5973L0.851705 20.9969L1.38294 21.3965L27.6223 41.133L27.9228 41.3591L28.2234 41.133L54.4627 21.3965L54.994 20.9969L54.4627 20.5973L28.2234 0.86075Z" fill="white" stroke="white"/>
</svg>
