<svg width="32" height="30" viewBox="0 0 32 30" fill="none" xmlns="http://www.w3.org/2000/svg">
<path fill-rule="evenodd" clip-rule="evenodd" d="M5.55719 24.7609C7.04818 22.3666 7.66467 20.0563 7.66467 18.3768H6.50525C6.50525 19.746 6.01232 21.727 4.75362 23.8511C5.00884 24.1655 5.27696 24.4691 5.55719 24.7609Z" fill="black"/>
<path fill-rule="evenodd" clip-rule="evenodd" d="M12.7866 24.7609C11.2957 22.3666 10.6792 20.0563 10.6792 18.3768H11.8386C11.8386 19.746 12.3315 21.727 13.5902 23.8511C13.335 24.1655 13.0669 24.4691 12.7866 24.7609Z" fill="black"/>
<path d="M9.17192 14.4348L9.17192 26.8986" stroke="black"/>
<path d="M13.2676 1.67155L13.4299 2.35341C13.0492 2.43357 12.6748 2.53119 12.3076 2.64538L12.1438 1.95744C11.5787 2.1279 11.0294 2.33486 10.4986 2.57557L10.8167 3.21715C10.4643 3.37907 10.1207 3.55699 9.78676 3.74999L9.4646 3.10012C9.13543 3.28558 8.81493 3.48462 8.50385 3.69648L7.83165 2.7514C8.19267 2.50463 8.56542 2.27377 8.94889 2.05981L8.70034 1.55843L9.73913 1.04348L9.98327 1.53596C10.5923 1.25767 11.224 1.02032 11.8747 0.827435L11.7417 0.268546L12.8696 0L12.9989 0.543006C13.4192 0.454491 13.8463 0.384194 14.2792 0.332978L14.3528 1.49204C13.9863 1.53721 13.6243 1.59725 13.2676 1.67155Z" fill="#CD1619"/>
<path d="M16.3478 1.39575V5.21739H16.8116V6.37681H16.3478V10.5507C16.3478 10.6058 16.3485 10.6665 16.3493 10.7306L16.3493 10.731V10.7314C16.3509 10.871 16.3527 11.0265 16.3478 11.1736V11.3623H16.3372C16.3186 11.5866 16.274 11.8383 16.1592 12.0772C16.0186 12.3697 15.7879 12.6117 15.4514 12.7706C15.1313 12.9217 14.7419 12.9855 14.2878 12.9855H13.1015L13.1014 11.8261H14.2878C14.6454 11.8261 14.8468 11.7739 14.9564 11.7222C15.0496 11.6781 15.0876 11.6303 15.1142 11.575C15.1494 11.5018 15.1759 11.3875 15.1862 11.2C15.1871 11.185 15.1878 11.1699 15.1884 11.1549V6.37681H7.88406V5.21739H15.1884V0.254226C15.2705 0.249694 15.3528 0.245846 15.4352 0.242686C15.6226 0.235507 15.8109 0.231884 16 0.231884C16.1163 0.231884 16.2322 0.233253 16.3478 0.235976C18.6412 0.28999 20.8027 0.876725 22.7134 1.87721L22.4643 3.06034C20.6445 2.04966 18.5634 1.45249 16.3478 1.39575Z" fill="#CD1619"/>
<path fill-rule="evenodd" clip-rule="evenodd" d="M30.4814 15.3043H32V14.1449H2.67904C2.76102 12.2285 3.24752 10.4169 4.05531 8.7933L3.04726 8.21636C2.14376 10.011 1.60225 12.0191 1.51863 14.1449H0V15.3043H1.51863C1.62811 18.0875 2.52246 20.6691 3.98649 22.8338C4.21684 22.4125 4.41295 22.0023 4.57827 21.6076C3.45846 19.7533 2.77743 17.6043 2.67904 15.3043H8.57971V25.8041C8.02318 25.4306 7.49634 25.0163 7.00347 24.5655C6.85509 24.8342 6.69698 25.1039 6.5289 25.3738L6.39947 25.5816C8.95606 27.8441 12.3177 29.2174 16 29.2174C18.7603 29.2174 21.3404 28.4457 23.5362 27.1063V25.971H21.6812V22.029H22.2609V18.4348H17.3913V22.029H18.2029V25.971H17.2754V27.1304H20.8958C19.4821 27.6888 17.9501 28.0125 16.3478 28.0535V15.3043H24.6957V18.4348H22.9565V19.5942H24.6957V26.3199C25.0589 26.047 25.409 25.7575 25.7446 25.4524L25.7508 25.4468C25.7857 25.415 25.8205 25.3831 25.8551 25.351V19.5942H27.0145V18.4348H25.8551V15.3043H29.321C29.2112 17.8711 28.3757 20.2499 27.0145 22.2408V24.1442C29.0659 21.7477 30.3488 18.6738 30.4814 15.3043ZM15.1884 28.0337V15.3043H9.73913V26.4996C11.3811 27.3745 13.2276 27.9159 15.1884 28.0337ZM18.5507 20.8696V19.5942H21.1014V20.8696H18.5507ZM19.3623 22.029H20.5217V25.971H19.3623V22.029Z" fill="#CD1619"/>
<path d="M6.6087 5.2599C6.91623 4.95474 7.23856 4.66446 7.57451 4.39023L6.90112 3.44348C5.5994 4.49471 4.48332 5.76666 3.60978 7.20243L4.61659 7.77865C4.87231 7.36046 5.15043 6.95745 5.44928 6.57129L5.44928 12.9855H6.6087L6.6087 5.2599Z" fill="#CD1619"/>
<path d="M24.6832 3.71363L24.3666 5.21739H26.9389C28.7943 7.35047 30.0362 10.0315 30.3895 12.9855L17.6232 12.9855V11.8261H29.0174C28.5676 9.79705 27.6555 7.9419 26.3973 6.37681H17.6232V5.21739H19.7784L19.3623 3.47478H20.6128L20.9797 5.21739H23.1818L23.5487 3.47478L23.5613 3.47744L23.7695 2.48833C24.1184 2.71031 24.4571 2.94679 24.7849 3.19694L24.6764 3.7122L24.6832 3.71363Z" fill="#CD1619"/>
<path fill-rule="evenodd" clip-rule="evenodd" d="M8.81159 7.07246C8.68353 7.07246 8.57971 7.17628 8.57971 7.30435V10.8986C8.57971 11.0266 8.68353 11.1304 8.81159 11.1304H14.2609C14.3889 11.1304 14.4928 11.0266 14.4928 10.8986V7.30435C14.4928 7.17628 14.3889 7.07246 14.2609 7.07246H8.81159ZM9.73913 8.23188V9.97101H13.3333V8.23188H9.73913Z" fill="#CD1619"/>
<path d="M23.0725 23.3623V22.029H24.2319V23.1884L23.0725 23.3623Z" fill="#CD1619"/>
<path d="M25.7885 4.05797L25.7922 4.04027L25.8114 4.05797H25.7885Z" fill="#CD1619"/>
<path d="M19.0145 9.04346L26.087 9.04346" stroke="black"/>
</svg>
