<svg width="276" height="252" viewBox="0 0 276 252" fill="none" xmlns="http://www.w3.org/2000/svg">
<path fill-rule="evenodd" clip-rule="evenodd" d="M47.9308 213.563C60.7905 192.912 66.1078 172.985 66.1078 158.5H56.1078C56.1078 170.309 51.8563 187.395 41 205.715C43.2012 208.428 45.5138 211.046 47.9308 213.563Z" fill="black"/>
<path fill-rule="evenodd" clip-rule="evenodd" d="M110.285 213.563C97.425 192.912 92.1078 172.985 92.1078 158.5H102.108C102.108 170.309 106.359 187.395 117.216 205.715C115.014 208.428 112.702 211.046 110.285 213.563Z" fill="black"/>
<path d="M79.1079 124.5L79.1079 232" stroke="black" stroke-width="10"/>
<path d="M114.433 14.4171L115.833 20.2982C112.549 20.9896 109.32 21.8315 106.153 22.8164L104.74 16.8829C99.866 18.3531 95.1283 20.1381 90.5507 22.2143L93.2938 27.7479C90.2548 29.1445 87.2912 30.679 84.4108 32.3437L81.6322 26.7386C78.7931 28.3382 76.0287 30.0549 73.3457 31.8821L67.548 23.7308C70.6618 21.6025 73.8767 19.6112 77.1842 17.7659L75.0405 13.4415L84 9L86.1057 13.2477C91.3586 10.8474 96.8067 8.80023 102.42 7.13662L101.272 2.31621L111 0L112.115 4.68343C115.741 3.91999 119.424 3.31367 123.158 2.87194L123.793 12.8689C120.632 13.2584 117.51 13.7763 114.433 14.4171Z" fill="#CD1619"/>
<path d="M141 12.0384V45H145V55H141V91C141 91.475 141.006 91.999 141.012 92.5518L141.012 92.5553V92.5586C141.026 93.7626 141.042 95.1035 141 96.3724V98H140.908C140.748 99.9344 140.363 102.105 139.373 104.166C138.161 106.688 136.171 108.776 133.269 110.146C130.508 111.45 127.149 112 123.233 112H113.001L113 102H123.233C126.316 102 128.053 101.55 128.999 101.104C129.803 100.724 130.13 100.312 130.36 99.8341C130.663 99.2027 130.892 98.2168 130.981 96.6002C130.989 96.4703 130.995 96.3408 131 96.2114V55H68V45H131V2.1927C131.708 2.15361 132.418 2.12042 133.129 2.09317C134.745 2.03125 136.369 2 138 2C139.003 2 140.003 2.01181 141 2.03529C160.78 2.50116 179.423 7.56176 195.903 16.1909L193.754 26.3955C178.059 17.6783 160.109 12.5277 141 12.0384Z" fill="#CD1619"/>
<path fill-rule="evenodd" clip-rule="evenodd" d="M262.902 132H276V122H23.1067C23.8138 105.471 28.0099 89.846 34.9771 75.8422L26.2826 70.8661C18.4899 86.3447 13.8194 103.665 13.0982 122H0V132H13.0982C14.0425 156.005 21.7562 178.271 34.3835 196.941C36.3703 193.308 38.0617 189.77 39.4876 186.365C29.8292 170.372 23.9553 151.837 23.1067 132H74V222.56C69.1999 219.339 64.6559 215.766 60.405 211.877C59.1252 214.195 57.7614 216.521 56.3117 218.849L55.1954 220.642C77.246 240.155 106.24 252 138 252C161.808 252 184.061 245.344 203 233.792V224H183V190H188V159H146V190H153V224H149V234H180.226C168.033 238.816 154.82 241.608 141 241.962V132H213V159H198V169H213V227.009C216.133 224.656 219.152 222.158 222.047 219.527L222.101 219.479C222.402 219.205 222.702 218.929 223 218.652V169H233V159H223V132H252.893C251.946 154.138 244.74 174.656 233 191.827V208.244C250.694 187.574 261.759 161.062 262.902 132ZM131 241.79V132H84V228.559C98.1619 236.105 114.088 240.775 131 241.79ZM156 180V169H178V180H156ZM163 190H173V224H163V190Z" fill="#CD1619"/>
<path d="M57 45.3667C59.6525 42.7346 62.4326 40.2309 65.3302 37.8657L59.5221 29.7C48.2948 38.7669 38.6686 49.7374 31.1344 62.1209L39.8181 67.0909C42.0237 63.4839 44.4224 60.008 47 56.6774L47 112H57L57 45.3667Z" fill="#CD1619"/>
<path d="M212.893 32.03L210.162 45H232.348C248.351 63.3978 259.062 86.5216 262.109 112L152 112V102H250.275C246.395 84.4996 238.529 68.4989 227.677 55H152V45H170.589L167 29.9699H177.785L180.95 45H199.943L203.107 29.9699L203.216 29.9929L205.012 21.4618C208.021 23.3764 210.943 25.4161 213.77 27.5736L212.834 32.0177L212.893 32.03Z" fill="#CD1619"/>
<path fill-rule="evenodd" clip-rule="evenodd" d="M76 61C74.8954 61 74 61.8954 74 63V94C74 95.1046 74.8954 96 76 96H123C124.105 96 125 95.1046 125 94V63C125 61.8954 124.105 61 123 61H76ZM84 71V86H115V71H84Z" fill="#CD1619"/>
<path d="M199 201.5V190H209V200L199 201.5Z" fill="#CD1619"/>
<path d="M222.425 35L222.458 34.8473L222.624 35H222.425Z" fill="#CD1619"/>
<path d="M162 79L223 79" stroke="black" stroke-width="10"/>
</svg>
