<?xml version="1.0" encoding="UTF-8" standalone="no"?>
<svg
   viewBox="0 0 16 24"
   version="1.1"
   id="svg4"
   sodipodi:docname="magnify-red.svg"
   width="16"
   height="24"
   inkscape:version="1.1.1 (3bf5ae0d25, 2021-09-20)"
   xmlns:inkscape="http://www.inkscape.org/namespaces/inkscape"
   xmlns:sodipodi="http://sodipodi.sourceforge.net/DTD/sodipodi-0.dtd"
   xmlns="http://www.w3.org/2000/svg"
   xmlns:svg="http://www.w3.org/2000/svg">
  <defs
     id="defs8" />
  <sodipodi:namedview
     id="namedview6"
     pagecolor="#ffffff"
     bordercolor="#666666"
     borderopacity="1.0"
     inkscape:pageshadow="2"
     inkscape:pageopacity="0.0"
     inkscape:pagecheckerboard="0"
     showgrid="false"
     width="16px"
     inkscape:zoom="29.958333"
     inkscape:cx="8.6954104"
     inkscape:cy="12"
     inkscape:window-width="1920"
     inkscape:window-height="1121"
     inkscape:window-x="-9"
     inkscape:window-y="-9"
     inkscape:window-maximized="1"
     inkscape:current-layer="svg4" />
  <path
     d="M 9.5,3 A 6.5,6.5 0 0 1 16,9.5 c 0,1.61 -0.59,3.09 -1.56,4.23 L 14.71,14 h 0.79 l 5,5 -1.5,1.5 -5,-5 V 14.71 L 13.73,14.44 C 12.59,15.41 11.11,16 9.5,16 A 6.5,6.5 0 0 1 3,9.5 6.5,6.5 0 0 1 9.5,3 m 0,2 C 7,5 5,7 5,9.5 5,12 7,14 9.5,14 12,14 14,12 14,9.5 14,7 12,5 9.5,5 Z"
     id="path2"
     style="fill:#cd1619;fill-opacity:1" />
</svg>
